<?xml version="1.0" encoding="utf-8"?>
<!-- Generator: Adobe Illustrator 17.1.0, SVG Export Plug-In . SVG Version: 6.00 Build 0)  -->
<!DOCTYPE svg PUBLIC "-//W3C//DTD SVG 1.1//EN" "http://www.w3.org/Graphics/SVG/1.1/DTD/svg11.dtd">
<svg version="1.1" id="Layer_2" xmlns="http://www.w3.org/2000/svg" xmlns:xlink="http://www.w3.org/1999/xlink" x="0px" y="0px"
	 viewBox="0 0 42 54" enable-background="new 0 0 42 54" xml:space="preserve">
<g>
	<rect x="0" y="0" fill="#41B8EA" width="42" height="54"/>
	<rect x="14.9" y="10.9" fill="#FFFFFF" width="22.3" height="8.2"/>
	<rect x="14.9" y="22.9" fill="#FFFFFF" width="22.3" height="8.2"/>
	<rect x="14.9" y="34.8" fill="#FFFFFF" width="22.3" height="8.2"/>
	<rect x="5.1" y="10.9" fill="#FFFFFF" width="8" height="8.2"/>
	<rect x="5.1" y="22.9" fill="#FFFFFF" width="8" height="8.2"/>
	<rect x="5.1" y="34.8" fill="#FFFFFF" width="8" height="8.2"/>
	<path fill="#41B8EA" d="M9.3,18.6l-3.4-2.8c-0.4-0.4-0.5-1-0.1-1.4c0.3-0.4,1-0.5,1.4-0.1l1.8,1.4l3.4-4.6c0.3-0.4,1-0.5,1.4-0.2
		c0.4,0.3,0.5,1,0.2,1.4L9.3,18.6z"/>
</g>
</svg>