<?xml version="1.0" encoding="utf-8"?>
<!-- Generator: Adobe Illustrator 17.1.0, SVG Export Plug-In . SVG Version: 6.00 Build 0)  -->
<!DOCTYPE svg PUBLIC "-//W3C//DTD SVG 1.1//EN" "http://www.w3.org/Graphics/SVG/1.1/DTD/svg11.dtd">
<svg version="1.1" id="Layer_2" xmlns="http://www.w3.org/2000/svg" xmlns:xlink="http://www.w3.org/1999/xlink" x="0px" y="0px"
	 viewBox="0 0 81.2 52.6" enable-background="new 0 0 81.2 52.6" xml:space="preserve">
<path fill="#41B8EA" d="M47.7,26.5c5.4-1.8,9.4-6.9,9.4-12.9C57.1,6.1,51,0,43.5,0S29.9,6.1,29.9,13.6c0,6,3.9,11.1,9.4,12.9
	c-8.6,1.3-15,6.6-15,12.9c0,7.3,8.6,13.2,19.2,13.2s19.2-5.9,19.2-13.2C62.7,33.1,56.3,27.8,47.7,26.5z"/>
<path fill="#41B8EA" d="M70.3,22.5c3.9-1.3,6.8-5,6.8-9.3c0-5.4-4.4-9.8-9.8-9.8s-9.8,4.4-9.8,9.8c0,4.3,2.8,8,6.8,9.3
	c-6.2,1-10.8,4.8-10.8,9.3c0,5.3,6.2,9.6,13.8,9.6s13.8-4.3,13.8-9.6C81.2,27.3,76.5,23.5,70.3,22.5z"/>
<path fill="#41B8EA" d="M14.8,20.2c3.4-1.1,5.9-4.4,5.9-8.2c0-4.8-3.9-8.6-8.6-8.6S3.6,7.3,3.6,12c0,3.8,2.5,7.1,5.9,8.2
	C4.1,21,0,24.4,0,28.4c0,4.6,5.4,8.4,12.2,8.4s12.2-3.8,12.2-8.4C24.3,24.4,20.3,21,14.8,20.2z"/>
<g>
	<path fill="#41B8EA" d="M26.1,35.4c-1.2,0-2.2-1-2.2-2.2v-4.1h-4.1c-1.2,0-2.2-1-2.2-2.2s1-2.2,2.2-2.2h4.1v-4.1
		c0-1.2,1-2.2,2.2-2.2s2.2,1,2.2,2.2v4.1h4.1c1.2,0,2.2,1,2.2,2.2s-1,2.2-2.2,2.2h-4.1v4.1C28.3,34.4,27.3,35.4,26.1,35.4z"/>
	<path fill="#FFFFFF" d="M26.1,18.9c1,0,1.7,0.8,1.7,1.7v4.6h4.6c1,0,1.7,0.8,1.7,1.7s-0.8,1.7-1.7,1.7h-4.6v4.6
		c0,1-0.8,1.7-1.7,1.7c-1,0-1.7-0.8-1.7-1.7v-4.6h-4.6c-1,0-1.7-0.8-1.7-1.7s0.8-1.7,1.7-1.7h4.6v-4.6
		C24.3,19.6,25.1,18.9,26.1,18.9 M26.1,17.9c-1.5,0-2.7,1.2-2.7,2.7v3.6h-3.6c-1.5,0-2.7,1.2-2.7,2.7c0,1.5,1.2,2.7,2.7,2.7h3.6v3.6
		c0,1.5,1.2,2.7,2.7,2.7c1.5,0,2.7-1.2,2.7-2.7v-3.6h3.6c1.5,0,2.7-1.2,2.7-2.7c0-1.5-1.2-2.7-2.7-2.7h-3.6v-3.6
		C28.8,19.1,27.6,17.9,26.1,17.9L26.1,17.9z"/>
</g>
</svg>