<?xml version="1.0" encoding="utf-8"?>
<!-- Generator: Adobe Illustrator 17.1.0, SVG Export Plug-In . SVG Version: 6.00 Build 0)  -->
<!DOCTYPE svg PUBLIC "-//W3C//DTD SVG 1.1//EN" "http://www.w3.org/Graphics/SVG/1.1/DTD/svg11.dtd">
<svg version="1.1" id="Layer_2" xmlns="http://www.w3.org/2000/svg" xmlns:xlink="http://www.w3.org/1999/xlink" x="0px" y="0px"
	 viewBox="0 0 583 438.8" enable-background="new 0 0 583 438.8" xml:space="preserve">
<g>
	<g>
		<g>
			<path fill="#FCDCD9" d="M124.5,203.4c-55,0-99.7-44.7-99.7-99.7S69.5,4,124.5,4c55,0,99.7,44.7,99.7,99.7
				S179.5,203.4,124.5,203.4z"/>
			<g>
				<path fill="#E64D3C" d="M124.5,8c52.8,0,95.7,42.9,95.7,95.7s-42.9,95.7-95.7,95.7s-95.7-42.9-95.7-95.7S71.7,8,124.5,8
					 M124.5,0C67.2,0,20.8,46.4,20.8,103.7s46.4,103.7,103.7,103.7S228.2,161,228.2,103.7S181.8,0,124.5,0L124.5,0z"/>
			</g>
		</g>
		<g>
			<path fill="#AF6931" d="M124.8,124.7h-0.1c-7.9,0-15.2-2.5-21-6.8V145h41.7v-26.7c-5.7,4-12.7,6.3-20.4,6.3H124.8z"/>
			<path fill="#6F4115" d="M103.6,108.4v9.4c5.8,4.2,13.1,6.8,21,6.8h0.1h0.1c7.7,0,14.7-2.4,20.4-6.3v-9.9H103.6z"/>
			<path fill="#AF6931" d="M124.7,32.2c-18.7,0-33.9,14-33.9,31.3V87c0,17.3,15.2,31.3,33.9,31.3h0.1V32.2H124.7z"/>
			<path fill="#6F4115" d="M158.8,87V63.5c0-17.3-15.2-31.3-33.9-31.3h-0.1v86.1h0.1C143.6,118.3,158.8,104.3,158.8,87z"/>
			<ellipse cx="109.8" cy="76.2" rx="4" ry="5.4"/>
			<ellipse cx="139.6" cy="76.2" rx="4" ry="5.4"/>
			<path fill="none" stroke="#000000" stroke-miterlimit="10" d="M122,103.7c0,0,7.6,0,10.6-0.9s3-3.4,3-3.4"/>
			<path fill="#E64D3C" d="M189,139c-3.6-7.5-6.1-8.6-10.9-10.9c-4.5-2.1-27.9-10.9-31.2-12.2v-0.2h-0.4h-0.6
				c0,5.4-9.3,9.8-20.8,9.8s-20.8-4.4-20.8-9.8h-1.8H102v0.2c-3.3,1.3-26.7,10.1-31.2,12.2c-4.9,2.2-7.3,3.4-10.9,10.9l-2.8,24.7
				H102h44.9h44.9L189,139z"/>
			<path d="M160.5,41.2c-4.8-14.2-32-19-44.3-19.2c-33.3-0.5-44.6,48.7-30.5,48c8.6-0.5,21.3-11.8,30.4-15.8
				c33.4-14.6,7.4,4.3,37.7,8.7C159.7,63.7,178.7,42.3,160.5,41.2z"/>
		</g>
	</g>
	<path fill="#FED500" d="M74.1,55.1c0,2.8-2.4,5.2-5.2,5.2H57.5c-1,0-1.7,0.7-1.7,1.7v15.7c0,0.6-0.2,0.9-0.8,0.9
		c-0.2,0-0.4-0.1-0.8-0.4L33.3,62c-2.6-1.7-5.3-1.7-5.3-1.7l-22.8,0C2.3,60.3,0,58,0,55.2V10.7c0-2.8,2.5-5.3,5.2-5.3h63.6
		c3.1,0,5.2,2.4,5.2,5.2C74.1,10.6,74.1,55.1,74.1,55.1z"/>
	<g id="lightbulb">
		<g>
			<path fill="#FFFFFF" d="M35,9.7c-7.5,0-13.5,6.1-13.5,13.6c0,4.4,2.1,8.3,5.4,10.8c1.5,1.1,2.8,2.6,2.8,4.6v3.5h10.8v-3.5
				c0-2,1.2-3.5,2.8-4.6c3.3-2.5,5.4-6.4,5.4-10.8C48.6,15.8,42.5,9.7,35,9.7L35,9.7z"/>
			<rect x="29.6" y="47.6" fill="#FFFFFF" width="10.8" height="5.4"/>
		</g>
	</g>
</g>
<g>
	<g>
		<g>
			<path fill="#DAEBF9" d="M291.2,434.8c-55,0-99.7-44.7-99.7-99.7s44.7-99.7,99.7-99.7c55,0,99.7,44.7,99.7,99.7
				S346.2,434.8,291.2,434.8z"/>
			<path fill="#4B8AC9" d="M291.2,239.4c52.8,0,95.7,42.9,95.7,95.7s-42.9,95.7-95.7,95.7s-95.7-42.9-95.7-95.7
				S238.4,239.4,291.2,239.4 M291.2,231.4c-57.3,0-103.7,46.4-103.7,103.7s46.4,103.7,103.7,103.7s103.7-46.4,103.7-103.7
				S348.5,231.4,291.2,231.4L291.2,231.4z"/>
		</g>
		<g>
			<ellipse fill="#6F4115" cx="291.5" cy="330.5" rx="42.5" ry="15.4"/>
			<path fill="#6F4115" d="M291.2,292.8c-15.9,0-30-5.7-38.4-14.5c-2.4,5.6-3.7,11.8-3.7,18.4c0,24.8,19,44.9,42.5,44.9
				s42.5-20.1,42.5-44.9c0-6.7-1.4-13.1-3.9-18.9C321.7,286.8,307.4,292.8,291.2,292.8z"/>
			<path fill="#E7CA9C" d="M291.5,355.2h-0.1c-7.9,0-15.2-2.5-21-6.8v27.1H312v-26.7c-5.7,4-12.7,6.3-20.4,6.3H291.5z"/>
			<path fill="#D4BA90" d="M270.4,339v9.4c5.8,4.2,13.1,6.8,21,6.8h0.1h0.1c7.7,0,14.7-2.4,20.4-6.3V339H270.4z"/>
			<path fill="#E7CA9C" d="M291.4,262.8c-18.7,0-33.9,14-33.9,31.3v23.5c0,17.3,15.2,31.3,33.9,31.3h0.1v-86.1H291.4z"/>
			<path fill="#D4BA90" d="M325.5,317.6v-23.5c0-17.3-15.2-31.3-33.9-31.3h-0.1v86.1h0.1C310.4,348.9,325.5,334.9,325.5,317.6z"/>
			<ellipse fill="#0FA24A" cx="276.5" cy="306.8" rx="4" ry="5.4"/>
			<ellipse fill="#0FA24A" cx="306.3" cy="306.8" rx="4" ry="5.4"/>
			<path fill="none" stroke="#E64D3C" stroke-width="2" stroke-linecap="round" stroke-miterlimit="10" d="M288.7,334.3
				c0,0,7.6,0,10.6-0.9c3-1,3-3.4,3-3.4"/>
			<path fill="#6F4115" d="M291.2,292.8c16.2,0,30.5-5.9,38.9-15c-6.7-15.4-21.5-26-38.6-26c-17.3,0-32.1,10.9-38.8,26.5
				C261.2,287,275.3,292.8,291.2,292.8z"/>
			<path fill="#4B8AC9" d="M355.8,372.1c-3.6-7.5-6.1-8.6-10.9-10.9c-4.5-2.1-27.9-10.9-31.2-12.2v-0.2h-0.4h-0.6
				c0,5.4-11.7,12.2-21.1,16.9c-10.2-4.7-20.5-11.5-20.5-16.9h-1.8h-0.4v0.2c-3.3,1.3-26.7,10.1-31.2,12.2
				c-4.9,2.2-7.3,3.4-10.9,10.9l-2.8,24.7h44.9h44.9h44.9L355.8,372.1z"/>
		</g>
	</g>
	<path fill="#FED500" d="M242.2,285.3c0,2.8-2.4,5.2-5.2,5.2h-11.3c-1,0-1.7,0.7-1.7,1.7V308c0,0.6-0.2,0.9-0.8,0.9
		c-0.2,0-0.4-0.1-0.8-0.4l-20.9-16.2c-2.6-1.7-5.3-1.7-5.3-1.7l-22.8,0c-2.8,0-5.1-2.3-5.1-5.1v-44.6c0-2.8,2.5-5.3,5.2-5.3h63.6
		c3.1,0,5.2,2.4,5.2,5.2C242.2,240.9,242.2,285.3,242.2,285.3z"/>
	<g>
		<path fill="#FFFFFF" d="M205.1,242.5c-11.2,0-20.3,9.1-20.3,20.3c0,11.2,9.1,20.3,20.3,20.3s20.3-9.1,20.3-20.3
			C225.4,251.6,216.3,242.5,205.1,242.5z M206.9,272.1c0,1.6-1.2,2.6-2.8,2.6c-1.5,0-2.6-1.1-2.6-2.7c0-1.6,1.3-2.6,2.8-2.6
			C205.9,269.4,207,270.5,206.9,272.1z M211.3,260.6c-0.4,0.5-1.2,1.2-2.3,2.1l-1.2,0.8c-0.6,0.4-0.9,1-1.1,1.6
			c-0.1,0.3-0.2,1.1-0.2,1.7c0,0.1-0.1,0.4-0.4,0.4c-0.3,0-3.2,0-3.5,0c-0.4,0-0.4-0.2-0.4-0.3c0.1-1.5,0.3-2.7,0.9-3.7
			c0.8-1.3,3.2-2.7,3.2-2.7c0.4-0.3,0.6-0.6,0.9-0.9c0.4-0.5,0.7-1.1,0.7-1.8c0-0.8-0.2-1.5-0.7-2.1c-0.6-0.7-1.2-1-2.3-1
			c-1.1,0-1.8,0.6-2.3,1.3c-0.5,0.8-0.4,1.7-0.4,2.5h-4.4c0-3.1,0.8-5,2.5-6.2c1.1-0.8,2.6-1.1,4.3-1.1c2.2,0,4,0.4,5.6,1.6
			c1.5,1.1,2.2,2.7,2.2,4.8C212.4,258.6,212,259.7,211.3,260.6z"/>
	</g>
</g>
<g>
	<g>
		<g>
			<path fill="#DDF0E8" d="M452.5,203.4c-55,0-99.7-44.7-99.7-99.7S397.5,4,452.5,4c55,0,99.7,44.7,99.7,99.7
				S507.5,203.4,452.5,203.4z"/>
			<g>
				<path fill="#90D0B6" d="M452.5,8c52.8,0,95.7,42.9,95.7,95.7s-42.9,95.7-95.7,95.7s-95.7-42.9-95.7-95.7S399.7,8,452.5,8
					 M452.5,0c-57.3,0-103.7,46.4-103.7,103.7s46.4,103.7,103.7,103.7c57.3,0,103.7-46.4,103.7-103.7S509.8,0,452.5,0L452.5,0z"/>
			</g>
		</g>
		<g>
			<path fill="#FFDEAA" d="M452.8,122h-0.1c-7.9,0-15.2-2.5-21-6.8v27.1h41.7v-26.7c-5.7,4-12.7,6.3-20.4,6.3H452.8z"/>
			<path fill="#E7CA9C" d="M431.7,105.8v9.4c5.8,4.2,13.1,6.8,21,6.8h0.1h0.1c7.7,0,14.7-2.4,20.4-6.3v-9.9H431.7z"/>
			<path fill="#FFDEAA" d="M452.7,29.5c-18.7,0-33.9,14-33.9,31.3v23.5c0,17.3,15.2,31.3,33.9,31.3h0.1V29.5H452.7z"/>
			<path fill="#E7CA9C" d="M486.8,84.3V60.8c0-17.3-15.2-31.3-33.9-31.3h-0.1v86.1h0.1C471.7,115.6,486.8,101.6,486.8,84.3z"/>
			<ellipse fill="#4379BD" cx="437.8" cy="73.5" rx="4" ry="5.4"/>
			<ellipse fill="#4379BD" cx="467.6" cy="73.5" rx="4" ry="5.4"/>
			<path fill="none" stroke="#000000" stroke-miterlimit="10" d="M450,101c0,0,7.6,0,10.6-0.9c3-1,3-3.4,3-3.4"/>
			<path fill="#90D0B6" d="M517.1,136.3c-3.6-7.5-6.1-8.6-10.9-10.9c-4.5-2.1-27.9-10.9-31.2-12.2v-0.2h-0.4h-0.6
				c0,5.4-9.3,9.8-20.8,9.8s-20.8-4.4-20.8-9.8h-1.8H430v0.2c-3.3,1.3-26.7,10.1-31.2,12.2c-4.9,2.2-7.3,3.4-10.9,10.9l-2.8,24.7
				H430H475h44.9L517.1,136.3z"/>
			<g>
				<path fill="#FED500" d="M481.7,37.4c-9.7-6.8-14.5-12.9-28.9-12.7c-12.3,0.2-33.5,2.2-38.2,15.8c-10.1-8.5-2.5,17,4.2,25.3
					C449.1,61.7,425.6,39,459,53c1.5,0.6,3.1,1.5,4.8,2.4c0.4,0.9,0.7,1.9,0.9,2.9c0.3,1.8,0.3,3.8-0.3,5.6c1-2.2,1.8-4.4,2.5-6.6
					c7.7,4.6,16.2,10.6,22.5,10.9C497.4,68.5,492.7,45.2,481.7,37.4z"/>
				<path fill="#FED500" d="M464.3,63.8c-0.5,1-0.9,2-1.4,3C463.6,65.9,464,64.9,464.3,63.8z"/>
			</g>
		</g>
	</g>
	<path fill="#FED500" d="M508.9,15c0-2.8,2.1-5.2,5.2-5.2h63.6c2.7,0,5.2,2.4,5.2,5.3v44.6c0,2.8-2.3,5.1-5.1,5.1l-22.8,0
		c0,0-2.7,0-5.3,1.7l-20.9,16.2c-0.3,0.3-0.6,0.4-0.8,0.4c-0.6,0-0.8-0.2-0.8-0.9V66.4c0-1.1-0.8-1.7-1.7-1.7h-11.3
		c-2.8,0-5.2-2.4-5.2-5.2C508.9,59.5,508.9,15,508.9,15z"/>
	<path fill="#FFFFFF" d="M564.7,32.9c-0.8-0.1-1.7-0.8-1.9-1.6l-1.2-2.9c-0.4-0.7-0.3-1.8,0.2-2.5l2-2.6c0.5-0.7,0.4-1.7-0.1-2.3
		l-2.1-2.1c-0.6-0.5-1.6-0.6-2.3-0.1l-2.6,1.9c-0.7,0.5-1.8,0.6-2.5,0.2l-2.9-1.2c-0.8-0.2-1.5-1.1-1.6-1.9l-0.5-3.2
		c-0.1-0.8-0.9-1.5-1.7-1.6c0,0-0.5-0.1-1.5-0.1c-1,0-1.5,0.1-1.5,0.1c-0.8,0.1-1.6,0.8-1.7,1.6l-0.5,3.2c-0.1,0.8-0.8,1.7-1.6,1.9
		l-2.9,1.2c-0.7,0.4-1.8,0.3-2.5-0.2l-2.6-1.9c-0.7-0.5-1.7-0.4-2.3,0.1l-2.1,2.1c-0.5,0.6-0.6,1.6-0.1,2.3l1.9,2.6
		c0.5,0.7,0.6,1.8,0.2,2.5l-1.2,2.9c-0.2,0.8-1.1,1.5-1.9,1.6l-3.2,0.5c-0.8,0.1-1.5,0.9-1.6,1.7c0,0-0.1,0.5-0.1,1.5
		c0,1,0.1,1.5,0.1,1.5c0.1,0.8,0.8,1.6,1.6,1.7l3.2,0.5c0.8,0.1,1.7,0.8,1.9,1.6l1.2,2.9c0.4,0.7,0.3,1.8-0.2,2.5l-1.9,2.6
		c-0.5,0.7-0.6,1.5-0.3,2c0.3,0.4,1.3,1.5,1.3,1.5c0,0,0.3,0.3,0.7,0.7c0.4,0.4,2.1,0.9,2.7,0.4l2.6-2c0.7-0.5,1.8-0.6,2.5-0.2
		l2.9,1.2c0.8,0.2,1.5,1.1,1.6,1.9l0.5,3.2c0.1,0.8,0.9,1.5,1.7,1.6c0,0,0.5,0.1,1.5,0.1c1,0,1.5-0.1,1.5-0.1
		c0.8-0.1,1.6-0.8,1.7-1.6l0.5-3.2c0.1-0.8,0.8-1.7,1.6-1.9l2.9-1.2c0.7-0.4,1.8-0.3,2.5,0.2l2.6,2c0.7,0.5,1.7,0.4,2.3-0.1l2.1-2.1
		c0.5-0.6,0.6-1.6,0.1-2.3l-2-2.6c-0.5-0.6-0.6-1.8-0.2-2.5l1.2-2.9c0.3-0.8,1.1-1.5,1.9-1.6l3.2-0.5c0.8-0.1,1.5-0.9,1.6-1.7
		c0,0,0.1-0.5,0.1-1.5c0-1-0.1-1.5-0.1-1.5c-0.1-0.8-0.8-1.6-1.6-1.7L564.7,32.9z M546,42.5c-3.3,0-5.9-2.6-5.9-5.9
		c0-3.3,2.6-5.9,5.9-5.9c3.3,0,5.9,2.6,5.9,5.9C551.9,39.9,549.2,42.5,546,42.5z"/>
</g>
<path fill="#FED500" d="M315.2,113.1l7.9,3.7l-33.6,33.6l-33.6-33.6l7.9-3.7c-9.5-0.7-22-4.7-31-8.8c4.2,9.1,8.2,21.5,8.8,31
	l3.7-7.9l36.7,36.7v31.7l-6.8-2.4c5.7,6.6,11.1,17.1,14.3,25.6c3.2-8.5,8.6-19.1,14.3-25.6l-6.8,2.4v-31.7l36.7-36.7l3.7,7.9
	c0.7-9.5,4.7-22,8.8-31C337.1,108.5,324.7,112.5,315.2,113.1z"/>
</svg>