<?xml version="1.0" encoding="utf-8"?>
<!-- Generator: Adobe Illustrator 17.1.0, SVG Export Plug-In . SVG Version: 6.00 Build 0)  -->
<!DOCTYPE svg PUBLIC "-//W3C//DTD SVG 1.1//EN" "http://www.w3.org/Graphics/SVG/1.1/DTD/svg11.dtd">
<svg version="1.1" id="Layer_2" xmlns="http://www.w3.org/2000/svg" xmlns:xlink="http://www.w3.org/1999/xlink" x="0px" y="0px"
	 viewBox="0 0 43 42.5" enable-background="new 0 0 43 42.5" xml:space="preserve">
<path fill="#41B8EA" d="M42.4,33.7l-7.1-7.1c-0.8-0.8-2-0.8-2.8,0l-4,4c-0.6,0.6-0.7,1.6-0.3,2.3c-4,1.1-7.3-1.4-12.2-6.3
	c-5.1-5.1-7.5-6.4-6.1-10.3c0.9,0.6,2,0.5,2.7-0.3l4.4-4.4c0.8-0.8,0.8-2.2,0-3.1L9.1,0.7C8.2-0.2,6.9-0.2,6,0.6L1.6,5
	C0.8,5.9,0.8,7.2,1.6,8c-3.5,7.7-1,18.2,6.9,26c8.3,8.2,19.3,10.6,27.1,6.3l0.1,0.1c0.8,0.8,2,0.8,2.8,0l4-4
	C43.2,35.7,43.2,34.4,42.4,33.7z"/>
</svg>